<?xml version="1.0" encoding="utf-8"?>
<!-- Svg Vector Icons : http://www.onlinewebfonts.com/icon -->
<!DOCTYPE svg PUBLIC "-//W3C//DTD SVG 1.1//EN" "http://www.w3.org/Graphics/SVG/1.1/DTD/svg11.dtd">
<svg version="1.1" xmlns="http://www.w3.org/2000/svg" xmlns:xlink="http://www.w3.org/1999/xlink" x="0px" y="0px" viewBox="0 0 1000 1000" enable-background="new 0 0 1000 1000" xml:space="preserve">
<metadata> Svg Vector Icons : http://www.onlinewebfonts.com/icon </metadata>
<g><path fill="#BDAE82" d="M10,500c0,270.6,219.4,490,490,490s490-219.4,490-490S770.6,10,500,10S10,229.4,10,500z M71.3,500c0-236.8,192-428.8,428.8-428.8c236.8,0,428.8,192,428.8,428.8c0,236.8-192,428.8-428.8,428.8C263.2,928.8,71.3,736.8,71.3,500z"/><path fill="#BDAE82" d="M469.4,316.3L193.8,500l275.6,183.8V316.3z"/><path fill="#BDAE82" d="M745,316.3L469.4,500L745,683.8V316.3z"/></g>
</svg>